Coordinates
version=1
nRows=12
nColumns=34
inDegrees=yes

Units are S.I. units (second, meters, Newtons, ...)
If the header above contains a line with 'inDegrees', this indicates whether rotational values are in degrees (yes) or radians (no).

endheader
time	pelvis_tilt	pelvis_list	pelvis_rotation	pelvis_tx	pelvis_ty	pelvis_tz	hip_flexion_r	hip_adduction_r	hip_rotation_r	knee_angle_r	ankle_angle_r	subtalar_angle_r	mtp_angle_r	hip_flexion_l	hip_adduction_l	hip_rotation_l	knee_angle_l	ankle_angle_l	subtalar_angle_l	mtp_angle_l	lumbar_extension	lumbar_bending	lumbar_rotation	arm_flex_r	arm_add_r	arm_rot_r	elbow_flex_r	pro_sup_r	arm_flex_l	arm_add_l	arm_rot_l	elbow_flex_l	pro_sup_l
      4.23333330	      1.84715096	     -4.54323271	   -178.45724488	      0.16573639	      1.02009009	      0.11745676	     27.28716265	      1.10218170	      0.05084616	     39.85085356	      5.45180681	    -14.99400702	      0.00000000	     13.09585354	      1.39765722	      0.75695963	    109.44152799	     -9.43337243	    -21.72035218	      0.00000000	    -14.93063325	     -2.16874813	     -6.92849375	    -16.03751242	    -22.02853385	     -1.69079510	    106.93980937	    101.73856424	     -6.50927413	    -32.11359475	     13.59590954	     93.25063738	     89.71105914
      4.24166670	      2.77398410	     -4.05842031	   -178.52345197	      0.16730213	      1.01525859	      0.11668334	     27.45109842	      2.00598502	      0.81637829	     41.74176154	      6.42455590	    -17.13234903	      0.00000000	     16.89863642	      0.65125605	      1.13136816	    111.64042749	     -8.21065248	    -20.67290902	      0.00000000	    -14.31867321	     -1.42190646	     -7.03546697	    -11.85575852	    -22.96117959	      1.10364012	    104.97650272	    101.83097826	    -10.28500956	    -32.20138362	     10.84817258	     91.64009305	     91.82099769
      4.25000000	      3.26019910	     -3.56561608	   -178.87440181	      0.16943289	      1.01137876	      0.11621499	     26.95475236	      2.91291513	      1.56387541	     43.34126102	      7.69495690	    -18.32371999	      0.00000000	     20.23702170	     -0.05922207	      1.32028288	    113.36058795	     -6.65027456	    -19.26927452	      0.00000000	    -14.34530124	     -0.56324818	     -6.20717147	     -8.31255084	    -23.58795949	      2.85134959	    104.06325602	    101.64571911	    -13.07144778	    -31.68664302	      8.29344112	     89.57996639	     93.03507371
      4.25833330	      3.78714782	     -3.22640001	   -179.23556082	      0.17205165	      1.00870240	      0.11601971	     26.27901071	      3.61277801	      2.40119622	     44.48846237	      9.34791898	    -19.00287428	      0.00000000	     23.71827675	     -0.51505047	      1.41326720	    114.51627290	     -5.21057451	    -18.16953192	      0.00000000	    -14.43270715	      0.01497147	     -4.88980740	     -5.32777707	    -24.07891196	      4.19507918	    103.37288741	    101.44789133	    -15.15455528	    -31.29928269	      6.79104159	     87.91727088	     93.55053071
      4.26666670	      4.35984334	     -2.81692512	   -179.47579148	      0.17495667	      1.00727959	      0.11646753	     25.37793532	      4.12443640	      2.76931644	     45.14871084	     10.61722551	    -19.31263983	      0.00000000	     27.33908146	     -0.90281529	      1.57567923	    115.09615505	     -3.91275254	    -17.28933488	      0.00000000	    -14.10171448	      0.61406509	     -4.53397380	     -1.25041809	    -24.39551972	      6.67733618	    102.18143904	    100.94220845	    -18.59635156	    -31.00038903	      4.17974460	     87.31221949	     94.02414087
      4.27500000	      4.44042167	     -2.62292158	   -179.76204239	      0.17828516	      1.00835986	      0.11733255	     23.66841499	      4.29807535	      3.20143490	     45.22853253	     11.44264411	    -19.55016993	      0.00000000	     30.40195800	     -0.96770774	      1.46353409	    114.74079866	     -3.37310807	    -17.42130415	      0.00000000	    -14.58331505	      0.95829180	     -2.38837727	      0.65704758	    -24.74506502	      6.41822056	    102.50786680	    100.89112524	    -19.58994027	    -31.18402160	      4.05238455	     86.98919410	     94.02438717
      4.28333330	      4.96885559	     -2.32517017	   -180.00394881	      0.18116790	      1.01094443	      0.11800203	     22.14322017	      4.40902447	      3.33080196	     44.61504918	     12.38527946	    -18.87960000	      0.00000000	     33.80728519	     -1.19942728	      1.25082910	    113.61170632	     -2.70714388	    -17.18322268	      0.00000000	    -14.15360140	      1.35132208	     -2.72321916	      5.09251428	    -24.99085743	     10.34100065	    101.05455515	     99.82045110	    -23.97981599	    -29.87943594	      0.01959195	     87.92322659	     93.52127571
      4.29166670	      5.15959507	     -2.14483703	   -180.01287207	      0.18388676	      1.01556420	      0.11854852	     20.04531607	      4.30238320	      3.31909066	     43.61652288	     12.59856649	    -18.55277992	      0.00000000	     36.64984989	     -1.18530624	      1.09236824	    111.84090703	     -2.81589801	    -17.94575452	      0.00000000	    -14.15307310	      1.67449414	     -1.04284237	      6.51045137	    -25.11212687	     10.50678601	    101.98908551	     99.69557154	    -25.13769500	    -30.07367682	     -0.02600800	     88.39714957	     93.50986137
      4.30000000	      5.37933609	     -2.06263366	   -179.84260460	      0.18520240	      1.02106058	      0.11937602	     17.74182204	      3.93739408	      2.94636500	     42.20323758	     12.60364927	    -17.65253654	      0.00000000	     39.19376797	     -1.00568735	      0.84555270	    109.42950443	     -3.47146408	    -19.45169182	      0.00000000	    -13.97015844	      1.88695806	      0.29053912	      7.65787644	    -25.17269203	     10.62422348	    102.85533279	     99.53831933	    -26.47863905	    -30.23078264	     -0.36246905	     89.32594220	     93.39989935
      4.30833330	      5.61425950	     -2.14891318	   -179.47159611	      0.18593467	      1.02738754	      0.11999382	     15.30767731	      3.34972379	      2.30657576	     40.51344596	     12.39612111	    -16.35402805	      0.00000000	     41.38451004	     -0.67083151	      0.44121708	    106.41816331	     -4.33809200	    -21.26256130	      0.00000000	    -13.65907190	      1.87924368	      1.27760165	      8.48312526	    -24.99906854	     10.71632348	    103.81321197	     99.38324214	    -27.93210353	    -30.38713315	     -0.92000314	     90.53471145	     93.22758792
      4.31666670	      5.79418695	     -2.38819880	   -178.96856861	      0.18642085	      1.03380778	      0.12086678	     12.70919580	      2.58718724	      1.49484028	     38.61458501	     12.10202804	    -14.46457477	      0.00000000	     43.23408659	     -0.20193247	     -0.12682211	    103.00490084	     -4.87146674	    -22.97576509	      0.00000000	    -13.32365202	      1.59893389	      1.38096191	      9.60291858	    -24.43502964	     11.45912068	    104.33097494	     98.88303000	    -30.31383527	    -29.72325811	     -3.20780353	     92.25789285	     92.57488858
      4.32500000	      6.32113151	     -2.40357009	   -178.29654930	      0.18564057	      1.04001172	      0.12232123	     10.30726901	      2.07481157	      0.45250846	     36.33397430	     10.82879993	    -12.90891444	      0.00000000	     45.30246400	      0.11235046	     -0.67596433	     99.19571835	     -5.19470314	    -24.43459148	      0.00000000	    -12.36297299	      1.75858679	      1.99683737	      9.83456589	    -24.25554183	     11.54938739	    105.49384280	     98.81764374	    -31.78065091	    -29.97864007	     -3.35552279	     93.61925440	     92.51781811
